# xmcd
# 
# Track frame offsets:
#     182
#     28595
#     49125
#     58977
#     72282
#     91230
#     107215
#     123005
#     131960
#     144772
#     161197
#     173930
#     187302
#     197100
#     225557
#     239110
# 
# Disc length: 3366
# 
# Revision: 3
# Processed by: cddbd v1.5.2PL0 Copyright (c) Steve Scherf et al.
# Submitted via: BonkEnc v1.0
# 
DISCID=f20d2410
DTITLE=Ray Charles - 16 Hits
DYEAR=1990
DGENRE=Pop
TTITLE0=I gotta woman
TTITLE1=What'd I said
TTITLE2=Busted
TTITLE3=Eleanor Rigby
TTITLE4=I can't stop loving you
TTITLE5=Your cheatin' heart
TTITLE6=Cry
TTITLE7=Hit the road, Jack
TTITLE8=Unchain my heart
TTITLE9=Georgia on my mind
TTITLE10=Yesterday
TTITLE11=Crying time
TTITLE12=Bye bye love
TTITLE13=Makin' Whoopee'
TTITLE14=Let's go get stoned
TTITLE15=You are my sunshine
EXTD=YEAR: 1990
EXTT0=
EXTT1=
EXTT2=
EXTT3=
EXTT4=
EXTT5=
EXTT6=
EXTT7=
EXTT8=
EXTT9=
EXTT10=
EXTT11=
EXTT12=
EXTT13=
EXTT14=
EXTT15=
PLAYORDER=
